<mxfile host="Electron" modified="2024-02-10T03:30:21.033Z" agent="Mozilla/5.0 (Windows NT 10.0; Win64; x64) AppleWebKit/537.36 (KHTML, like Gecko) draw.io/23.0.2 Chrome/120.0.6099.109 Electron/28.1.0 Safari/537.36" etag="iLDjhsAMLIBPy1RuLnf5" version="23.0.2" type="device">
  <diagram name="Page-1" id="6UyMne99y8ESHFV-JtRF">
    <mxGraphModel dx="732" dy="547" grid="1" gridSize="10" guides="1" tooltips="1" connect="1" arrows="1" fold="1" page="1" pageScale="1" pageWidth="850" pageHeight="1100" math="0" shadow="0">
      <root>
        <mxCell id="0" />
        <mxCell id="1" parent="0" />
        <mxCell id="NWCrP_Y0ihaiEaNDN7uH-37" style="edgeStyle=orthogonalEdgeStyle;rounded=0;orthogonalLoop=1;jettySize=auto;html=1;entryX=0.5;entryY=0;entryDx=0;entryDy=0;startArrow=classic;startFill=1;" parent="1" source="NWCrP_Y0ihaiEaNDN7uH-1" target="NWCrP_Y0ihaiEaNDN7uH-35" edge="1">
          <mxGeometry relative="1" as="geometry" />
        </mxCell>
        <mxCell id="NWCrP_Y0ihaiEaNDN7uH-1" value="Automobile" style="rounded=0;whiteSpace=wrap;html=1;" parent="1" vertex="1">
          <mxGeometry x="120" y="50" width="70" height="40" as="geometry" />
        </mxCell>
        <mxCell id="NWCrP_Y0ihaiEaNDN7uH-2" value="Maintenance Work" style="rounded=0;whiteSpace=wrap;html=1;" parent="1" vertex="1">
          <mxGeometry x="270" y="200" width="110" height="40" as="geometry" />
        </mxCell>
        <mxCell id="NWCrP_Y0ihaiEaNDN7uH-36" style="edgeStyle=orthogonalEdgeStyle;rounded=0;orthogonalLoop=1;jettySize=auto;html=1;entryX=0.5;entryY=0;entryDx=0;entryDy=0;startArrow=classic;startFill=1;" parent="1" source="NWCrP_Y0ihaiEaNDN7uH-3" target="NWCrP_Y0ihaiEaNDN7uH-34" edge="1">
          <mxGeometry relative="1" as="geometry" />
        </mxCell>
        <mxCell id="NWCrP_Y0ihaiEaNDN7uH-3" value="workshop" style="rounded=0;whiteSpace=wrap;html=1;" parent="1" vertex="1">
          <mxGeometry x="200" y="50" width="80" height="40" as="geometry" />
        </mxCell>
        <mxCell id="NWCrP_Y0ihaiEaNDN7uH-20" style="edgeStyle=orthogonalEdgeStyle;rounded=0;orthogonalLoop=1;jettySize=auto;html=1;entryX=0.5;entryY=0;entryDx=0;entryDy=0;startArrow=classic;startFill=1;" parent="1" source="NWCrP_Y0ihaiEaNDN7uH-4" target="NWCrP_Y0ihaiEaNDN7uH-18" edge="1">
          <mxGeometry relative="1" as="geometry" />
        </mxCell>
        <mxCell id="NWCrP_Y0ihaiEaNDN7uH-4" value="Parts" style="rounded=0;whiteSpace=wrap;html=1;" parent="1" vertex="1">
          <mxGeometry x="295" y="50" width="60" height="40" as="geometry" />
        </mxCell>
        <mxCell id="NWCrP_Y0ihaiEaNDN7uH-16" style="edgeStyle=orthogonalEdgeStyle;rounded=0;orthogonalLoop=1;jettySize=auto;html=1;" parent="1" edge="1">
          <mxGeometry relative="1" as="geometry">
            <mxPoint x="345" y="240" as="targetPoint" />
            <Array as="points">
              <mxPoint x="345" y="280" />
              <mxPoint x="345" y="280" />
            </Array>
            <mxPoint x="338.1412938514171" y="280.00000000000006" as="sourcePoint" />
          </mxGeometry>
        </mxCell>
        <mxCell id="NWCrP_Y0ihaiEaNDN7uH-7" value="Start Date" style="ellipse;whiteSpace=wrap;html=1;rotation=0;" parent="1" vertex="1">
          <mxGeometry x="280" y="270" width="65" height="30" as="geometry" />
        </mxCell>
        <mxCell id="NWCrP_Y0ihaiEaNDN7uH-15" value="" style="edgeStyle=orthogonalEdgeStyle;rounded=0;orthogonalLoop=1;jettySize=auto;html=1;" parent="1" source="NWCrP_Y0ihaiEaNDN7uH-11" target="NWCrP_Y0ihaiEaNDN7uH-2" edge="1">
          <mxGeometry relative="1" as="geometry">
            <Array as="points">
              <mxPoint x="325" y="260" />
            </Array>
          </mxGeometry>
        </mxCell>
        <mxCell id="NWCrP_Y0ihaiEaNDN7uH-11" value="End Date" style="ellipse;whiteSpace=wrap;html=1;rotation=0;" parent="1" vertex="1">
          <mxGeometry x="215" y="250" width="65" height="30" as="geometry" />
        </mxCell>
        <mxCell id="NWCrP_Y0ihaiEaNDN7uH-19" style="edgeStyle=orthogonalEdgeStyle;rounded=0;orthogonalLoop=1;jettySize=auto;html=1;entryX=0.5;entryY=0;entryDx=0;entryDy=0;startArrow=classic;startFill=1;" parent="1" source="NWCrP_Y0ihaiEaNDN7uH-18" target="NWCrP_Y0ihaiEaNDN7uH-2" edge="1">
          <mxGeometry relative="1" as="geometry" />
        </mxCell>
        <mxCell id="NWCrP_Y0ihaiEaNDN7uH-18" value="parts replaced" style="rhombus;whiteSpace=wrap;html=1;" parent="1" vertex="1">
          <mxGeometry x="290" y="120" width="70" height="50" as="geometry" />
        </mxCell>
        <mxCell id="NWCrP_Y0ihaiEaNDN7uH-22" style="edgeStyle=orthogonalEdgeStyle;rounded=0;orthogonalLoop=1;jettySize=auto;html=1;entryX=1;entryY=0.5;entryDx=0;entryDy=0;" parent="1" source="NWCrP_Y0ihaiEaNDN7uH-21" target="NWCrP_Y0ihaiEaNDN7uH-18" edge="1">
          <mxGeometry relative="1" as="geometry">
            <mxPoint x="360" y="70" as="targetPoint" />
            <Array as="points">
              <mxPoint x="380" y="145" />
            </Array>
          </mxGeometry>
        </mxCell>
        <mxCell id="NWCrP_Y0ihaiEaNDN7uH-21" value="Quantity" style="ellipse;whiteSpace=wrap;html=1;" parent="1" vertex="1">
          <mxGeometry x="380" y="170" width="60" height="30" as="geometry" />
        </mxCell>
        <mxCell id="NWCrP_Y0ihaiEaNDN7uH-27" style="edgeStyle=orthogonalEdgeStyle;rounded=0;orthogonalLoop=1;jettySize=auto;html=1;" parent="1" target="NWCrP_Y0ihaiEaNDN7uH-4" edge="1">
          <mxGeometry relative="1" as="geometry">
            <mxPoint x="385" y="135" as="sourcePoint" />
            <mxPoint x="360" y="70" as="targetPoint" />
            <Array as="points">
              <mxPoint x="370" y="135" />
              <mxPoint x="370" y="90" />
            </Array>
          </mxGeometry>
        </mxCell>
        <mxCell id="NWCrP_Y0ihaiEaNDN7uH-24" value="Unit Cost" style="ellipse;whiteSpace=wrap;html=1;" parent="1" vertex="1">
          <mxGeometry x="380" y="120" width="60" height="30" as="geometry" />
        </mxCell>
        <mxCell id="NWCrP_Y0ihaiEaNDN7uH-31" style="edgeStyle=orthogonalEdgeStyle;rounded=0;orthogonalLoop=1;jettySize=auto;html=1;entryX=1;entryY=0.5;entryDx=0;entryDy=0;" parent="1" source="NWCrP_Y0ihaiEaNDN7uH-25" target="NWCrP_Y0ihaiEaNDN7uH-4" edge="1">
          <mxGeometry relative="1" as="geometry">
            <mxPoint x="390" y="80" as="targetPoint" />
            <Array as="points">
              <mxPoint x="380" y="70" />
            </Array>
          </mxGeometry>
        </mxCell>
        <mxCell id="NWCrP_Y0ihaiEaNDN7uH-25" value="Name" style="ellipse;whiteSpace=wrap;html=1;" parent="1" vertex="1">
          <mxGeometry x="380" y="80" width="60" height="30" as="geometry" />
        </mxCell>
        <mxCell id="NWCrP_Y0ihaiEaNDN7uH-32" value="" style="edgeStyle=orthogonalEdgeStyle;rounded=0;orthogonalLoop=1;jettySize=auto;html=1;" parent="1" source="NWCrP_Y0ihaiEaNDN7uH-26" target="NWCrP_Y0ihaiEaNDN7uH-4" edge="1">
          <mxGeometry relative="1" as="geometry">
            <Array as="points">
              <mxPoint x="360" y="55" />
              <mxPoint x="360" y="55" />
            </Array>
          </mxGeometry>
        </mxCell>
        <mxCell id="NWCrP_Y0ihaiEaNDN7uH-26" value="Code" style="ellipse;whiteSpace=wrap;html=1;" parent="1" vertex="1">
          <mxGeometry x="380" y="40" width="60" height="30" as="geometry" />
        </mxCell>
        <mxCell id="LJ63shYj3af9ihLk8B8J-1" style="edgeStyle=orthogonalEdgeStyle;rounded=0;orthogonalLoop=1;jettySize=auto;html=1;entryX=0;entryY=0.25;entryDx=0;entryDy=0;startArrow=classic;startFill=1;" parent="1" source="NWCrP_Y0ihaiEaNDN7uH-34" target="NWCrP_Y0ihaiEaNDN7uH-2" edge="1">
          <mxGeometry relative="1" as="geometry" />
        </mxCell>
        <mxCell id="NWCrP_Y0ihaiEaNDN7uH-34" value="does" style="rhombus;whiteSpace=wrap;html=1;" parent="1" vertex="1">
          <mxGeometry x="210" y="130" width="60" height="40" as="geometry" />
        </mxCell>
        <mxCell id="LJ63shYj3af9ihLk8B8J-3" style="edgeStyle=orthogonalEdgeStyle;rounded=0;orthogonalLoop=1;jettySize=auto;html=1;entryX=0;entryY=0.75;entryDx=0;entryDy=0;strokeColor=default;startArrow=classic;startFill=1;" parent="1" source="NWCrP_Y0ihaiEaNDN7uH-35" target="NWCrP_Y0ihaiEaNDN7uH-2" edge="1">
          <mxGeometry relative="1" as="geometry">
            <Array as="points">
              <mxPoint x="155" y="230" />
            </Array>
          </mxGeometry>
        </mxCell>
        <mxCell id="NWCrP_Y0ihaiEaNDN7uH-35" value="needs" style="rhombus;whiteSpace=wrap;html=1;" parent="1" vertex="1">
          <mxGeometry x="125" y="130" width="60" height="40" as="geometry" />
        </mxCell>
        <mxCell id="LJ63shYj3af9ihLk8B8J-8" style="edgeStyle=orthogonalEdgeStyle;rounded=0;orthogonalLoop=1;jettySize=auto;html=1;entryX=0;entryY=0.5;entryDx=0;entryDy=0;startArrow=classic;startFill=1;" parent="1" source="LJ63shYj3af9ihLk8B8J-5" target="NWCrP_Y0ihaiEaNDN7uH-1" edge="1">
          <mxGeometry relative="1" as="geometry">
            <Array as="points">
              <mxPoint x="80" y="70" />
            </Array>
          </mxGeometry>
        </mxCell>
        <mxCell id="LJ63shYj3af9ihLk8B8J-5" value="owns" style="rhombus;whiteSpace=wrap;html=1;" parent="1" vertex="1">
          <mxGeometry x="50" y="130" width="60" height="40" as="geometry" />
        </mxCell>
        <mxCell id="LJ63shYj3af9ihLk8B8J-7" style="edgeStyle=orthogonalEdgeStyle;rounded=0;orthogonalLoop=1;jettySize=auto;html=1;entryX=0.5;entryY=1;entryDx=0;entryDy=0;startArrow=classic;startFill=1;" parent="1" source="LJ63shYj3af9ihLk8B8J-6" target="LJ63shYj3af9ihLk8B8J-5" edge="1">
          <mxGeometry relative="1" as="geometry" />
        </mxCell>
        <mxCell id="LJ63shYj3af9ihLk8B8J-6" value="Owner" style="rounded=0;whiteSpace=wrap;html=1;" parent="1" vertex="1">
          <mxGeometry x="75" y="200" width="70" height="40" as="geometry" />
        </mxCell>
        <mxCell id="LJ63shYj3af9ihLk8B8J-9" value="Hours of Labor" style="ellipse;whiteSpace=wrap;html=1;rotation=0;" parent="1" vertex="1">
          <mxGeometry x="377.5" y="240" width="65" height="40" as="geometry" />
        </mxCell>
        <mxCell id="LJ63shYj3af9ihLk8B8J-10" style="edgeStyle=orthogonalEdgeStyle;rounded=0;orthogonalLoop=1;jettySize=auto;html=1;entryX=0.872;entryY=1.062;entryDx=0;entryDy=0;entryPerimeter=0;" parent="1" source="LJ63shYj3af9ihLk8B8J-9" target="NWCrP_Y0ihaiEaNDN7uH-2" edge="1">
          <mxGeometry relative="1" as="geometry">
            <Array as="points">
              <mxPoint x="366" y="260" />
            </Array>
          </mxGeometry>
        </mxCell>
        <mxCell id="vejLtixS_acCu_ArqMec-32" value="M" style="text;html=1;strokeColor=none;fillColor=none;align=center;verticalAlign=middle;whiteSpace=wrap;rounded=0;" parent="1" vertex="1">
          <mxGeometry x="85" y="90" width="20" height="20" as="geometry" />
        </mxCell>
        <mxCell id="vejLtixS_acCu_ArqMec-33" value="1" style="text;html=1;strokeColor=none;fillColor=none;align=center;verticalAlign=middle;whiteSpace=wrap;rounded=0;" parent="1" vertex="1">
          <mxGeometry x="100" y="160" width="20" height="20" as="geometry" />
        </mxCell>
        <mxCell id="vejLtixS_acCu_ArqMec-34" value="M" style="text;html=1;strokeColor=none;fillColor=none;align=center;verticalAlign=middle;whiteSpace=wrap;rounded=0;" parent="1" vertex="1">
          <mxGeometry x="302.5" y="90" width="20" height="20" as="geometry" />
        </mxCell>
        <mxCell id="vejLtixS_acCu_ArqMec-35" value="M" style="text;html=1;strokeColor=none;fillColor=none;align=center;verticalAlign=middle;whiteSpace=wrap;rounded=0;" parent="1" vertex="1">
          <mxGeometry x="302.5" y="175" width="20" height="20" as="geometry" />
        </mxCell>
        <mxCell id="vejLtixS_acCu_ArqMec-36" value="M" style="text;html=1;strokeColor=none;fillColor=none;align=center;verticalAlign=middle;whiteSpace=wrap;rounded=0;" parent="1" vertex="1">
          <mxGeometry x="155" y="180" width="20" height="20" as="geometry" />
        </mxCell>
        <mxCell id="vejLtixS_acCu_ArqMec-37" value="M" style="text;html=1;strokeColor=none;fillColor=none;align=center;verticalAlign=middle;whiteSpace=wrap;rounded=0;" parent="1" vertex="1">
          <mxGeometry x="155" y="100" width="20" height="20" as="geometry" />
        </mxCell>
        <mxCell id="vejLtixS_acCu_ArqMec-38" value="M" style="text;html=1;strokeColor=none;fillColor=none;align=center;verticalAlign=middle;whiteSpace=wrap;rounded=0;" parent="1" vertex="1">
          <mxGeometry x="237.5" y="175" width="20" height="20" as="geometry" />
        </mxCell>
        <mxCell id="vejLtixS_acCu_ArqMec-39" value="1" style="text;html=1;strokeColor=none;fillColor=none;align=center;verticalAlign=middle;whiteSpace=wrap;rounded=0;" parent="1" vertex="1">
          <mxGeometry x="237.5" y="100" width="20" height="20" as="geometry" />
        </mxCell>
        <mxCell id="vejLtixS_acCu_ArqMec-40" value="&lt;u&gt;reg#&lt;/u&gt;" style="ellipse;whiteSpace=wrap;html=1;" parent="1" vertex="1">
          <mxGeometry x="105" y="10" width="40" height="30" as="geometry" />
        </mxCell>
        <mxCell id="vejLtixS_acCu_ArqMec-46" style="edgeStyle=orthogonalEdgeStyle;rounded=0;orthogonalLoop=1;jettySize=auto;html=1;entryX=0.75;entryY=0;entryDx=0;entryDy=0;" parent="1" source="vejLtixS_acCu_ArqMec-41" edge="1">
          <mxGeometry relative="1" as="geometry">
            <mxPoint x="174.98671140939598" y="19.62392014418728" as="sourcePoint" />
            <mxPoint x="172.48000000000002" y="50" as="targetPoint" />
            <Array as="points">
              <mxPoint x="175" y="30" />
              <mxPoint x="175" y="30" />
            </Array>
          </mxGeometry>
        </mxCell>
        <mxCell id="vejLtixS_acCu_ArqMec-43" value="&lt;u&gt;name&lt;/u&gt;" style="ellipse;whiteSpace=wrap;html=1;" parent="1" vertex="1">
          <mxGeometry x="195" y="10" width="42.5" height="20" as="geometry" />
        </mxCell>
        <mxCell id="vejLtixS_acCu_ArqMec-53" style="edgeStyle=orthogonalEdgeStyle;rounded=0;orthogonalLoop=1;jettySize=auto;html=1;entryX=0.5;entryY=0;entryDx=0;entryDy=0;" parent="1" source="vejLtixS_acCu_ArqMec-44" target="NWCrP_Y0ihaiEaNDN7uH-3" edge="1">
          <mxGeometry relative="1" as="geometry">
            <Array as="points">
              <mxPoint x="240" y="30" />
            </Array>
          </mxGeometry>
        </mxCell>
        <mxCell id="vejLtixS_acCu_ArqMec-44" value="addr." style="ellipse;whiteSpace=wrap;html=1;" parent="1" vertex="1">
          <mxGeometry x="245" y="10" width="35" height="20" as="geometry" />
        </mxCell>
        <mxCell id="vejLtixS_acCu_ArqMec-47" value="" style="edgeStyle=orthogonalEdgeStyle;rounded=0;orthogonalLoop=1;jettySize=auto;html=1;entryX=0.75;entryY=0;entryDx=0;entryDy=0;" parent="1" target="vejLtixS_acCu_ArqMec-41" edge="1">
          <mxGeometry relative="1" as="geometry">
            <mxPoint x="174.98671140939598" y="19.62392014418728" as="sourcePoint" />
            <mxPoint x="172.48000000000002" y="50" as="targetPoint" />
            <Array as="points" />
          </mxGeometry>
        </mxCell>
        <mxCell id="vejLtixS_acCu_ArqMec-41" value="model" style="ellipse;whiteSpace=wrap;html=1;" parent="1" vertex="1">
          <mxGeometry x="145" y="10" width="45" height="30" as="geometry" />
        </mxCell>
        <mxCell id="vejLtixS_acCu_ArqMec-49" style="edgeStyle=orthogonalEdgeStyle;rounded=0;orthogonalLoop=1;jettySize=auto;html=1;entryX=0.289;entryY=-0.001;entryDx=0;entryDy=0;entryPerimeter=0;" parent="1" source="vejLtixS_acCu_ArqMec-40" target="NWCrP_Y0ihaiEaNDN7uH-1" edge="1">
          <mxGeometry relative="1" as="geometry">
            <Array as="points">
              <mxPoint x="125" y="40" />
              <mxPoint x="140" y="40" />
            </Array>
          </mxGeometry>
        </mxCell>
        <mxCell id="vejLtixS_acCu_ArqMec-50" style="edgeStyle=orthogonalEdgeStyle;rounded=0;orthogonalLoop=1;jettySize=auto;html=1;entryX=0.21;entryY=-0.011;entryDx=0;entryDy=0;entryPerimeter=0;exitX=0.396;exitY=0.974;exitDx=0;exitDy=0;exitPerimeter=0;" parent="1" source="vejLtixS_acCu_ArqMec-43" edge="1">
          <mxGeometry relative="1" as="geometry">
            <mxPoint x="209.99671140939597" y="30.00286957357514" as="sourcePoint" />
            <mxPoint x="211.78999999999996" y="49.58000000000001" as="targetPoint" />
            <Array as="points" />
          </mxGeometry>
        </mxCell>
        <mxCell id="vejLtixS_acCu_ArqMec-51" style="edgeStyle=orthogonalEdgeStyle;rounded=0;orthogonalLoop=1;jettySize=auto;html=1;entryX=0.21;entryY=-0.011;entryDx=0;entryDy=0;entryPerimeter=0;exitX=0.017;exitY=0.64;exitDx=0;exitDy=0;exitPerimeter=0;" parent="1" source="vejLtixS_acCu_ArqMec-52" edge="1">
          <mxGeometry relative="1" as="geometry">
            <mxPoint x="265" y="33" as="sourcePoint" />
            <mxPoint x="257.49999999999994" y="51.50999999999999" as="targetPoint" />
            <Array as="points">
              <mxPoint x="281" y="40" />
              <mxPoint x="258" y="40" />
            </Array>
          </mxGeometry>
        </mxCell>
        <mxCell id="vejLtixS_acCu_ArqMec-52" value="Phone#" style="ellipse;whiteSpace=wrap;html=1;" parent="1" vertex="1">
          <mxGeometry x="280" y="20" width="50" height="20" as="geometry" />
        </mxCell>
        <mxCell id="vejLtixS_acCu_ArqMec-54" value="&lt;u&gt;SS#&lt;/u&gt;" style="ellipse;whiteSpace=wrap;html=1;" parent="1" vertex="1">
          <mxGeometry x="10" y="195" width="40" height="30" as="geometry" />
        </mxCell>
        <mxCell id="vejLtixS_acCu_ArqMec-57" style="edgeStyle=orthogonalEdgeStyle;rounded=0;orthogonalLoop=1;jettySize=auto;html=1;entryX=-0.012;entryY=0.25;entryDx=0;entryDy=0;entryPerimeter=0;" parent="1" source="vejLtixS_acCu_ArqMec-54" target="LJ63shYj3af9ihLk8B8J-6" edge="1">
          <mxGeometry relative="1" as="geometry" />
        </mxCell>
        <mxCell id="vejLtixS_acCu_ArqMec-58" value="F.name" style="ellipse;whiteSpace=wrap;html=1;" parent="1" vertex="1">
          <mxGeometry x="15" y="240" width="50" height="30" as="geometry" />
        </mxCell>
        <mxCell id="vejLtixS_acCu_ArqMec-59" value="S.name" style="ellipse;whiteSpace=wrap;html=1;" parent="1" vertex="1">
          <mxGeometry x="60" y="260" width="50" height="30" as="geometry" />
        </mxCell>
        <mxCell id="vejLtixS_acCu_ArqMec-62" style="edgeStyle=orthogonalEdgeStyle;rounded=0;orthogonalLoop=1;jettySize=auto;html=1;entryX=0.15;entryY=1.031;entryDx=0;entryDy=0;entryPerimeter=0;" parent="1" source="vejLtixS_acCu_ArqMec-58" target="LJ63shYj3af9ihLk8B8J-6" edge="1">
          <mxGeometry relative="1" as="geometry" />
        </mxCell>
        <mxCell id="vejLtixS_acCu_ArqMec-64" style="edgeStyle=orthogonalEdgeStyle;rounded=0;orthogonalLoop=1;jettySize=auto;html=1;entryX=0.61;entryY=1.06;entryDx=0;entryDy=0;entryPerimeter=0;" parent="1" source="vejLtixS_acCu_ArqMec-59" target="LJ63shYj3af9ihLk8B8J-6" edge="1">
          <mxGeometry relative="1" as="geometry">
            <Array as="points">
              <mxPoint x="118" y="270" />
              <mxPoint x="118" y="250" />
              <mxPoint x="118" y="250" />
            </Array>
          </mxGeometry>
        </mxCell>
        <mxCell id="vejLtixS_acCu_ArqMec-66" style="edgeStyle=orthogonalEdgeStyle;rounded=0;orthogonalLoop=1;jettySize=auto;html=1;entryX=1.007;entryY=0.961;entryDx=0;entryDy=0;entryPerimeter=0;" parent="1" source="vejLtixS_acCu_ArqMec-65" target="LJ63shYj3af9ihLk8B8J-6" edge="1">
          <mxGeometry relative="1" as="geometry">
            <mxPoint x="150" y="240" as="targetPoint" />
            <Array as="points">
              <mxPoint x="145" y="250" />
              <mxPoint x="146" y="250" />
            </Array>
          </mxGeometry>
        </mxCell>
        <mxCell id="vejLtixS_acCu_ArqMec-65" value="Phone#" style="ellipse;whiteSpace=wrap;html=1;" parent="1" vertex="1">
          <mxGeometry x="125" y="260" width="50" height="30" as="geometry" />
        </mxCell>
        <mxCell id="vejLtixS_acCu_ArqMec-67" style="edgeStyle=orthogonalEdgeStyle;rounded=0;orthogonalLoop=1;jettySize=auto;html=1;entryX=0.5;entryY=0;entryDx=0;entryDy=0;startArrow=classic;startFill=1;" parent="1" source="vejLtixS_acCu_ArqMec-68" target="vejLtixS_acCu_ArqMec-91" edge="1">
          <mxGeometry relative="1" as="geometry" />
        </mxCell>
        <mxCell id="vejLtixS_acCu_ArqMec-68" value="Automobile" style="rounded=0;whiteSpace=wrap;html=1;" parent="1" vertex="1">
          <mxGeometry x="170" y="70" width="70" height="40" as="geometry" />
        </mxCell>
        <mxCell id="vejLtixS_acCu_ArqMec-69" value="Maintenance Work" style="rounded=0;whiteSpace=wrap;html=1;" parent="1" vertex="1">
          <mxGeometry x="320" y="220" width="110" height="40" as="geometry" />
        </mxCell>
        <mxCell id="vejLtixS_acCu_ArqMec-70" style="edgeStyle=orthogonalEdgeStyle;rounded=0;orthogonalLoop=1;jettySize=auto;html=1;entryX=0.5;entryY=0;entryDx=0;entryDy=0;startArrow=classic;startFill=1;" parent="1" source="vejLtixS_acCu_ArqMec-71" target="vejLtixS_acCu_ArqMec-89" edge="1">
          <mxGeometry relative="1" as="geometry" />
        </mxCell>
        <mxCell id="vejLtixS_acCu_ArqMec-71" value="workshop" style="rounded=0;whiteSpace=wrap;html=1;" parent="1" vertex="1">
          <mxGeometry x="250" y="70" width="80" height="40" as="geometry" />
        </mxCell>
        <mxCell id="vejLtixS_acCu_ArqMec-72" style="edgeStyle=orthogonalEdgeStyle;rounded=0;orthogonalLoop=1;jettySize=auto;html=1;entryX=0.5;entryY=0;entryDx=0;entryDy=0;startArrow=classic;startFill=1;" parent="1" source="vejLtixS_acCu_ArqMec-73" target="vejLtixS_acCu_ArqMec-79" edge="1">
          <mxGeometry relative="1" as="geometry" />
        </mxCell>
        <mxCell id="vejLtixS_acCu_ArqMec-73" value="Parts" style="rounded=0;whiteSpace=wrap;html=1;" parent="1" vertex="1">
          <mxGeometry x="345" y="70" width="60" height="40" as="geometry" />
        </mxCell>
        <mxCell id="vejLtixS_acCu_ArqMec-74" style="edgeStyle=orthogonalEdgeStyle;rounded=0;orthogonalLoop=1;jettySize=auto;html=1;" parent="1" edge="1">
          <mxGeometry relative="1" as="geometry">
            <mxPoint x="395" y="260" as="targetPoint" />
            <Array as="points">
              <mxPoint x="395" y="300" />
              <mxPoint x="395" y="300" />
            </Array>
            <mxPoint x="388.1412938514171" y="300.00000000000006" as="sourcePoint" />
          </mxGeometry>
        </mxCell>
        <mxCell id="vejLtixS_acCu_ArqMec-75" value="Start Date" style="ellipse;whiteSpace=wrap;html=1;rotation=0;" parent="1" vertex="1">
          <mxGeometry x="330" y="290" width="65" height="30" as="geometry" />
        </mxCell>
        <mxCell id="vejLtixS_acCu_ArqMec-76" value="" style="edgeStyle=orthogonalEdgeStyle;rounded=0;orthogonalLoop=1;jettySize=auto;html=1;" parent="1" source="vejLtixS_acCu_ArqMec-77" target="vejLtixS_acCu_ArqMec-69" edge="1">
          <mxGeometry relative="1" as="geometry">
            <Array as="points">
              <mxPoint x="375" y="280" />
            </Array>
          </mxGeometry>
        </mxCell>
        <mxCell id="vejLtixS_acCu_ArqMec-77" value="End Date" style="ellipse;whiteSpace=wrap;html=1;rotation=0;" parent="1" vertex="1">
          <mxGeometry x="265" y="270" width="65" height="30" as="geometry" />
        </mxCell>
        <mxCell id="vejLtixS_acCu_ArqMec-78" style="edgeStyle=orthogonalEdgeStyle;rounded=0;orthogonalLoop=1;jettySize=auto;html=1;entryX=0.5;entryY=0;entryDx=0;entryDy=0;startArrow=classic;startFill=1;" parent="1" source="vejLtixS_acCu_ArqMec-79" target="vejLtixS_acCu_ArqMec-69" edge="1">
          <mxGeometry relative="1" as="geometry" />
        </mxCell>
        <mxCell id="vejLtixS_acCu_ArqMec-79" value="parts replaced" style="rhombus;whiteSpace=wrap;html=1;" parent="1" vertex="1">
          <mxGeometry x="340" y="140" width="70" height="50" as="geometry" />
        </mxCell>
        <mxCell id="vejLtixS_acCu_ArqMec-80" style="edgeStyle=orthogonalEdgeStyle;rounded=0;orthogonalLoop=1;jettySize=auto;html=1;entryX=1;entryY=0.5;entryDx=0;entryDy=0;" parent="1" source="vejLtixS_acCu_ArqMec-81" target="vejLtixS_acCu_ArqMec-79" edge="1">
          <mxGeometry relative="1" as="geometry">
            <mxPoint x="410" y="90" as="targetPoint" />
            <Array as="points">
              <mxPoint x="430" y="165" />
            </Array>
          </mxGeometry>
        </mxCell>
        <mxCell id="vejLtixS_acCu_ArqMec-81" value="Quantity" style="ellipse;whiteSpace=wrap;html=1;" parent="1" vertex="1">
          <mxGeometry x="430" y="190" width="60" height="30" as="geometry" />
        </mxCell>
        <mxCell id="vejLtixS_acCu_ArqMec-82" style="edgeStyle=orthogonalEdgeStyle;rounded=0;orthogonalLoop=1;jettySize=auto;html=1;" parent="1" target="vejLtixS_acCu_ArqMec-73" edge="1">
          <mxGeometry relative="1" as="geometry">
            <mxPoint x="435" y="155" as="sourcePoint" />
            <mxPoint x="410" y="90" as="targetPoint" />
            <Array as="points">
              <mxPoint x="420" y="155" />
              <mxPoint x="420" y="110" />
            </Array>
          </mxGeometry>
        </mxCell>
        <mxCell id="vejLtixS_acCu_ArqMec-83" value="Unit Cost" style="ellipse;whiteSpace=wrap;html=1;" parent="1" vertex="1">
          <mxGeometry x="430" y="140" width="60" height="30" as="geometry" />
        </mxCell>
        <mxCell id="vejLtixS_acCu_ArqMec-84" style="edgeStyle=orthogonalEdgeStyle;rounded=0;orthogonalLoop=1;jettySize=auto;html=1;entryX=1;entryY=0.5;entryDx=0;entryDy=0;" parent="1" source="vejLtixS_acCu_ArqMec-85" target="vejLtixS_acCu_ArqMec-73" edge="1">
          <mxGeometry relative="1" as="geometry">
            <mxPoint x="440" y="100" as="targetPoint" />
            <Array as="points">
              <mxPoint x="430" y="90" />
            </Array>
          </mxGeometry>
        </mxCell>
        <mxCell id="vejLtixS_acCu_ArqMec-85" value="Name" style="ellipse;whiteSpace=wrap;html=1;" parent="1" vertex="1">
          <mxGeometry x="430" y="100" width="60" height="30" as="geometry" />
        </mxCell>
        <mxCell id="vejLtixS_acCu_ArqMec-86" value="" style="edgeStyle=orthogonalEdgeStyle;rounded=0;orthogonalLoop=1;jettySize=auto;html=1;" parent="1" source="vejLtixS_acCu_ArqMec-87" target="vejLtixS_acCu_ArqMec-73" edge="1">
          <mxGeometry relative="1" as="geometry">
            <Array as="points">
              <mxPoint x="410" y="75" />
              <mxPoint x="410" y="75" />
            </Array>
          </mxGeometry>
        </mxCell>
        <mxCell id="vejLtixS_acCu_ArqMec-87" value="Code" style="ellipse;whiteSpace=wrap;html=1;" parent="1" vertex="1">
          <mxGeometry x="430" y="60" width="60" height="30" as="geometry" />
        </mxCell>
        <mxCell id="vejLtixS_acCu_ArqMec-88" style="edgeStyle=orthogonalEdgeStyle;rounded=0;orthogonalLoop=1;jettySize=auto;html=1;entryX=0;entryY=0.25;entryDx=0;entryDy=0;startArrow=classic;startFill=1;" parent="1" source="vejLtixS_acCu_ArqMec-89" target="vejLtixS_acCu_ArqMec-69" edge="1">
          <mxGeometry relative="1" as="geometry" />
        </mxCell>
        <mxCell id="vejLtixS_acCu_ArqMec-89" value="does" style="rhombus;whiteSpace=wrap;html=1;" parent="1" vertex="1">
          <mxGeometry x="260" y="150" width="60" height="40" as="geometry" />
        </mxCell>
        <mxCell id="vejLtixS_acCu_ArqMec-90" style="edgeStyle=orthogonalEdgeStyle;rounded=0;orthogonalLoop=1;jettySize=auto;html=1;entryX=0;entryY=0.75;entryDx=0;entryDy=0;strokeColor=default;startArrow=classic;startFill=1;" parent="1" source="vejLtixS_acCu_ArqMec-91" target="vejLtixS_acCu_ArqMec-69" edge="1">
          <mxGeometry relative="1" as="geometry">
            <Array as="points">
              <mxPoint x="205" y="250" />
            </Array>
          </mxGeometry>
        </mxCell>
        <mxCell id="vejLtixS_acCu_ArqMec-91" value="needs" style="rhombus;whiteSpace=wrap;html=1;" parent="1" vertex="1">
          <mxGeometry x="175" y="150" width="60" height="40" as="geometry" />
        </mxCell>
        <mxCell id="vejLtixS_acCu_ArqMec-92" style="edgeStyle=orthogonalEdgeStyle;rounded=0;orthogonalLoop=1;jettySize=auto;html=1;entryX=0;entryY=0.5;entryDx=0;entryDy=0;startArrow=classic;startFill=1;" parent="1" source="vejLtixS_acCu_ArqMec-93" target="vejLtixS_acCu_ArqMec-68" edge="1">
          <mxGeometry relative="1" as="geometry">
            <Array as="points">
              <mxPoint x="130" y="90" />
            </Array>
          </mxGeometry>
        </mxCell>
        <mxCell id="vejLtixS_acCu_ArqMec-93" value="owns" style="rhombus;whiteSpace=wrap;html=1;" parent="1" vertex="1">
          <mxGeometry x="100" y="150" width="60" height="40" as="geometry" />
        </mxCell>
        <mxCell id="vejLtixS_acCu_ArqMec-94" style="edgeStyle=orthogonalEdgeStyle;rounded=0;orthogonalLoop=1;jettySize=auto;html=1;entryX=0.5;entryY=1;entryDx=0;entryDy=0;startArrow=classic;startFill=1;" parent="1" source="vejLtixS_acCu_ArqMec-95" target="vejLtixS_acCu_ArqMec-93" edge="1">
          <mxGeometry relative="1" as="geometry" />
        </mxCell>
        <mxCell id="vejLtixS_acCu_ArqMec-95" value="Owner" style="rounded=0;whiteSpace=wrap;html=1;" parent="1" vertex="1">
          <mxGeometry x="130" y="220" width="70" height="40" as="geometry" />
        </mxCell>
        <mxCell id="vejLtixS_acCu_ArqMec-96" value="Hours of Labor" style="ellipse;whiteSpace=wrap;html=1;rotation=0;" parent="1" vertex="1">
          <mxGeometry x="427.5" y="260" width="65" height="40" as="geometry" />
        </mxCell>
        <mxCell id="vejLtixS_acCu_ArqMec-97" style="edgeStyle=orthogonalEdgeStyle;rounded=0;orthogonalLoop=1;jettySize=auto;html=1;entryX=0.872;entryY=1.062;entryDx=0;entryDy=0;entryPerimeter=0;" parent="1" source="vejLtixS_acCu_ArqMec-96" target="vejLtixS_acCu_ArqMec-69" edge="1">
          <mxGeometry relative="1" as="geometry">
            <Array as="points">
              <mxPoint x="416" y="280" />
            </Array>
          </mxGeometry>
        </mxCell>
        <mxCell id="vejLtixS_acCu_ArqMec-98" value="M" style="text;html=1;strokeColor=none;fillColor=none;align=center;verticalAlign=middle;whiteSpace=wrap;rounded=0;" parent="1" vertex="1">
          <mxGeometry x="135" y="110" width="20" height="20" as="geometry" />
        </mxCell>
        <mxCell id="vejLtixS_acCu_ArqMec-99" value="1" style="text;html=1;strokeColor=none;fillColor=none;align=center;verticalAlign=middle;whiteSpace=wrap;rounded=0;" parent="1" vertex="1">
          <mxGeometry x="150" y="180" width="20" height="20" as="geometry" />
        </mxCell>
        <mxCell id="vejLtixS_acCu_ArqMec-100" value="M" style="text;html=1;strokeColor=none;fillColor=none;align=center;verticalAlign=middle;whiteSpace=wrap;rounded=0;" parent="1" vertex="1">
          <mxGeometry x="352.5" y="110" width="20" height="20" as="geometry" />
        </mxCell>
        <mxCell id="vejLtixS_acCu_ArqMec-101" value="M" style="text;html=1;strokeColor=none;fillColor=none;align=center;verticalAlign=middle;whiteSpace=wrap;rounded=0;" parent="1" vertex="1">
          <mxGeometry x="352.5" y="195" width="20" height="20" as="geometry" />
        </mxCell>
        <mxCell id="vejLtixS_acCu_ArqMec-102" value="M" style="text;html=1;strokeColor=none;fillColor=none;align=center;verticalAlign=middle;whiteSpace=wrap;rounded=0;" parent="1" vertex="1">
          <mxGeometry x="205" y="200" width="20" height="20" as="geometry" />
        </mxCell>
        <mxCell id="vejLtixS_acCu_ArqMec-103" value="M" style="text;html=1;strokeColor=none;fillColor=none;align=center;verticalAlign=middle;whiteSpace=wrap;rounded=0;" parent="1" vertex="1">
          <mxGeometry x="205" y="120" width="20" height="20" as="geometry" />
        </mxCell>
        <mxCell id="vejLtixS_acCu_ArqMec-104" value="M" style="text;html=1;strokeColor=none;fillColor=none;align=center;verticalAlign=middle;whiteSpace=wrap;rounded=0;" parent="1" vertex="1">
          <mxGeometry x="287.5" y="195" width="20" height="20" as="geometry" />
        </mxCell>
        <mxCell id="vejLtixS_acCu_ArqMec-105" value="1" style="text;html=1;strokeColor=none;fillColor=none;align=center;verticalAlign=middle;whiteSpace=wrap;rounded=0;" parent="1" vertex="1">
          <mxGeometry x="287.5" y="120" width="20" height="20" as="geometry" />
        </mxCell>
        <mxCell id="vejLtixS_acCu_ArqMec-106" value="&lt;u&gt;reg#&lt;/u&gt;" style="ellipse;whiteSpace=wrap;html=1;" parent="1" vertex="1">
          <mxGeometry x="155" y="30" width="40" height="30" as="geometry" />
        </mxCell>
        <mxCell id="vejLtixS_acCu_ArqMec-107" style="edgeStyle=orthogonalEdgeStyle;rounded=0;orthogonalLoop=1;jettySize=auto;html=1;entryX=0.75;entryY=0;entryDx=0;entryDy=0;" parent="1" source="vejLtixS_acCu_ArqMec-112" edge="1">
          <mxGeometry relative="1" as="geometry">
            <mxPoint x="224.98671140939598" y="39.62392014418728" as="sourcePoint" />
            <mxPoint x="222.48000000000002" y="70" as="targetPoint" />
            <Array as="points">
              <mxPoint x="225" y="50" />
              <mxPoint x="225" y="50" />
            </Array>
          </mxGeometry>
        </mxCell>
        <mxCell id="vejLtixS_acCu_ArqMec-108" value="&lt;u&gt;name&lt;/u&gt;" style="ellipse;whiteSpace=wrap;html=1;" parent="1" vertex="1">
          <mxGeometry x="245" y="30" width="42.5" height="20" as="geometry" />
        </mxCell>
        <mxCell id="vejLtixS_acCu_ArqMec-109" style="edgeStyle=orthogonalEdgeStyle;rounded=0;orthogonalLoop=1;jettySize=auto;html=1;entryX=0.5;entryY=0;entryDx=0;entryDy=0;" parent="1" source="vejLtixS_acCu_ArqMec-110" target="vejLtixS_acCu_ArqMec-71" edge="1">
          <mxGeometry relative="1" as="geometry">
            <Array as="points">
              <mxPoint x="290" y="50" />
            </Array>
          </mxGeometry>
        </mxCell>
        <mxCell id="vejLtixS_acCu_ArqMec-110" value="addr." style="ellipse;whiteSpace=wrap;html=1;" parent="1" vertex="1">
          <mxGeometry x="295" y="30" width="35" height="20" as="geometry" />
        </mxCell>
        <mxCell id="vejLtixS_acCu_ArqMec-111" value="" style="edgeStyle=orthogonalEdgeStyle;rounded=0;orthogonalLoop=1;jettySize=auto;html=1;entryX=0.75;entryY=0;entryDx=0;entryDy=0;" parent="1" target="vejLtixS_acCu_ArqMec-112" edge="1">
          <mxGeometry relative="1" as="geometry">
            <mxPoint x="224.98671140939598" y="39.62392014418728" as="sourcePoint" />
            <mxPoint x="222.48000000000002" y="70" as="targetPoint" />
            <Array as="points" />
          </mxGeometry>
        </mxCell>
        <mxCell id="vejLtixS_acCu_ArqMec-112" value="model" style="ellipse;whiteSpace=wrap;html=1;" parent="1" vertex="1">
          <mxGeometry x="195" y="30" width="45" height="30" as="geometry" />
        </mxCell>
        <mxCell id="vejLtixS_acCu_ArqMec-113" style="edgeStyle=orthogonalEdgeStyle;rounded=0;orthogonalLoop=1;jettySize=auto;html=1;entryX=0.289;entryY=-0.001;entryDx=0;entryDy=0;entryPerimeter=0;" parent="1" source="vejLtixS_acCu_ArqMec-106" target="vejLtixS_acCu_ArqMec-68" edge="1">
          <mxGeometry relative="1" as="geometry">
            <Array as="points">
              <mxPoint x="175" y="60" />
              <mxPoint x="190" y="60" />
            </Array>
          </mxGeometry>
        </mxCell>
        <mxCell id="vejLtixS_acCu_ArqMec-114" style="edgeStyle=orthogonalEdgeStyle;rounded=0;orthogonalLoop=1;jettySize=auto;html=1;entryX=0.21;entryY=-0.011;entryDx=0;entryDy=0;entryPerimeter=0;exitX=0.396;exitY=0.974;exitDx=0;exitDy=0;exitPerimeter=0;" parent="1" source="vejLtixS_acCu_ArqMec-108" edge="1">
          <mxGeometry relative="1" as="geometry">
            <mxPoint x="259.99671140939597" y="50.00286957357514" as="sourcePoint" />
            <mxPoint x="261.78999999999996" y="69.58000000000001" as="targetPoint" />
            <Array as="points" />
          </mxGeometry>
        </mxCell>
        <mxCell id="vejLtixS_acCu_ArqMec-115" style="edgeStyle=orthogonalEdgeStyle;rounded=0;orthogonalLoop=1;jettySize=auto;html=1;entryX=0.21;entryY=-0.011;entryDx=0;entryDy=0;entryPerimeter=0;exitX=0.017;exitY=0.64;exitDx=0;exitDy=0;exitPerimeter=0;" parent="1" source="vejLtixS_acCu_ArqMec-116" edge="1">
          <mxGeometry relative="1" as="geometry">
            <mxPoint x="315" y="53" as="sourcePoint" />
            <mxPoint x="307.49999999999994" y="71.50999999999999" as="targetPoint" />
            <Array as="points">
              <mxPoint x="331" y="60" />
              <mxPoint x="308" y="60" />
            </Array>
          </mxGeometry>
        </mxCell>
        <mxCell id="vejLtixS_acCu_ArqMec-116" value="Phone#" style="ellipse;whiteSpace=wrap;html=1;" parent="1" vertex="1">
          <mxGeometry x="330" y="40" width="50" height="20" as="geometry" />
        </mxCell>
        <mxCell id="vejLtixS_acCu_ArqMec-117" value="&lt;u&gt;SS#&lt;/u&gt;" style="ellipse;whiteSpace=wrap;html=1;" parent="1" vertex="1">
          <mxGeometry x="60" y="215" width="40" height="30" as="geometry" />
        </mxCell>
        <mxCell id="vejLtixS_acCu_ArqMec-118" style="edgeStyle=orthogonalEdgeStyle;rounded=0;orthogonalLoop=1;jettySize=auto;html=1;entryX=-0.012;entryY=0.25;entryDx=0;entryDy=0;entryPerimeter=0;" parent="1" source="vejLtixS_acCu_ArqMec-117" target="vejLtixS_acCu_ArqMec-95" edge="1">
          <mxGeometry relative="1" as="geometry" />
        </mxCell>
        <mxCell id="vejLtixS_acCu_ArqMec-119" value="F.name" style="ellipse;whiteSpace=wrap;html=1;" parent="1" vertex="1">
          <mxGeometry x="65" y="260" width="50" height="30" as="geometry" />
        </mxCell>
        <mxCell id="vejLtixS_acCu_ArqMec-120" value="S.name" style="ellipse;whiteSpace=wrap;html=1;" parent="1" vertex="1">
          <mxGeometry x="110" y="280" width="50" height="30" as="geometry" />
        </mxCell>
        <mxCell id="vejLtixS_acCu_ArqMec-121" style="edgeStyle=orthogonalEdgeStyle;rounded=0;orthogonalLoop=1;jettySize=auto;html=1;entryX=0.15;entryY=1.031;entryDx=0;entryDy=0;entryPerimeter=0;" parent="1" source="vejLtixS_acCu_ArqMec-119" target="vejLtixS_acCu_ArqMec-95" edge="1">
          <mxGeometry relative="1" as="geometry" />
        </mxCell>
        <mxCell id="vejLtixS_acCu_ArqMec-122" style="edgeStyle=orthogonalEdgeStyle;rounded=0;orthogonalLoop=1;jettySize=auto;html=1;entryX=0.61;entryY=1.06;entryDx=0;entryDy=0;entryPerimeter=0;" parent="1" source="vejLtixS_acCu_ArqMec-120" target="vejLtixS_acCu_ArqMec-95" edge="1">
          <mxGeometry relative="1" as="geometry">
            <Array as="points">
              <mxPoint x="168" y="290" />
              <mxPoint x="168" y="270" />
              <mxPoint x="168" y="270" />
            </Array>
          </mxGeometry>
        </mxCell>
        <mxCell id="vejLtixS_acCu_ArqMec-123" style="edgeStyle=orthogonalEdgeStyle;rounded=0;orthogonalLoop=1;jettySize=auto;html=1;entryX=1.007;entryY=0.961;entryDx=0;entryDy=0;entryPerimeter=0;" parent="1" source="vejLtixS_acCu_ArqMec-124" target="vejLtixS_acCu_ArqMec-95" edge="1">
          <mxGeometry relative="1" as="geometry">
            <mxPoint x="200" y="260" as="targetPoint" />
            <Array as="points">
              <mxPoint x="195" y="270" />
              <mxPoint x="196" y="270" />
            </Array>
          </mxGeometry>
        </mxCell>
        <mxCell id="vejLtixS_acCu_ArqMec-124" value="Phone#" style="ellipse;whiteSpace=wrap;html=1;" parent="1" vertex="1">
          <mxGeometry x="175" y="280" width="50" height="30" as="geometry" />
        </mxCell>
      </root>
    </mxGraphModel>
  </diagram>
</mxfile>
